{"accessors":[{"bufferView":0,"byteOffset":0,"componentType":5123,"count":18738,"type":"SCALAR","max":[15468],"min":[0]},{"bufferView":1,"byteOffset":0,"componentType":5126,"count":15469,"type":"VEC3","max":[-263.5614013671875,163.53756713867188,143.51602172851562],"min":[-677.79833984375,6.1936187744140625,-500.5609130859375],"name":"POSITION"},{"bufferView":1,"byteOffset":12,"componentType":5126,"count":15469,"type":"VEC2","max":[0.29598599672317505,-0.019999999552965164],"min":[0.019999999552965164,-0.9800000190734863],"name":"TEXCOORD_0"},{"bufferView":1,"byteOffset":20,"componentType":5126,"count":15469,"type":"VEC3","max":[0.9998877644538879,1.0000044107437134,0.9994632005691528],"min":[-0.9998089075088501,-1.0000044107437134,-0.9998809695243835],"name":"NORMAL"}],"asset":{"generator":"Aspose.3D 22.1","version":"2.0"},"buffers":[{"uri":"data:application/octet-stream;base64,","byteLength":637100}],"bufferViews":[{"buffer":0,"byteOffset":0,"byteLength":37476,"target":34963},{"buffer":0,"byteOffset":37480,"byteLength":599616,"byteStride":32,"target":34962}],"meshes":[{"primitives":[{"attributes":{"POSITION":1,"TEXCOORD_0":2,"NORMAL":3},"indices":0,"mode":4}],"name":""}],"nodes":[{"mesh":0,"name":"muromedioLP"}],"scene":0,"scenes":[{"nodes":[0]}]}